<?xml version="1.0" standalone="no"?>
<!DOCTYPE svg PUBLIC "-//W3C//DTD SVG 1.1//EN" "http://www.w3.org/Graphics/SVG/1.1/DTD/svg11.dtd">

<svg width="400px" height="400px" version="1.1" xmlns="http://www.w3.org/2000/svg">
<rect width="400px" height="400px" style="fill:rgb(255,255,255);stroke-width:0;stroke:rgb(0,0,0)"/>
<line x1="0px" y1="0px" x2="10px" y2="0px" style="stroke:rgb(0,0,0);stroke-width:1"/>
<line x1="10px" y1="0px" x2="10px" y2="10px" style="stroke:rgb(0,0,0);stroke-width:1"/>
<line x1="10px" y1="10px" x2="0px" y2="10px" style="stroke:rgb(0,0,0);stroke-width:1"/>
<line x1="0px" y1="10px" x2="0px" y2="20px" style="stroke:rgb(0,0,0);stroke-width:1"/>
<line x1="0px" y1="20px" x2="10px" y2="20px" style="stroke:rgb(0,0,0);stroke-width:1"/>
<line x1="10px" y1="20px" x2="10px" y2="30px" style="stroke:rgb(0,0,0);stroke-width:1"/>
<line x1="10px" y1="30px" x2="0px" y2="30px" style="stroke:rgb(0,0,0);stroke-width:1"/>
<line x1="0px" y1="30px" x2="0px" y2="40px" style="stroke:rgb(0,0,0);stroke-width:1"/>
<line x1="105px" y1="65px" x2="105px" y2="55px" style="stroke:rgb(0,0,0);stroke-width:1"/>
<line x1="105px" y1="55px" x2="115px" y2="55px" style="stroke:rgb(0,0,0);stroke-width:1"/>
<line x1="115px" y1="55px" x2="115px" y2="65px" style="stroke:rgb(0,0,0);stroke-width:1"/>
<line x1="115px" y1="65px" x2="125px" y2="65px" style="stroke:rgb(0,0,0);stroke-width:1"/>
<line x1="125px" y1="65px" x2="125px" y2="55px" style="stroke:rgb(0,0,0);stroke-width:1"/>
<line x1="125px" y1="55px" x2="135px" y2="55px" style="stroke:rgb(0,0,0);stroke-width:1"/>
<line x1="135px" y1="55px" x2="135px" y2="65px" style="stroke:rgb(0,0,0);stroke-width:1"/>
<line x1="135px" y1="65px" x2="145px" y2="65px" style="stroke:rgb(0,0,0);stroke-width:1"/>
<line x1="180px" y1="45px" x2="180px" y2="35px" style="stroke:rgb(0,0,0);stroke-width:1"/>
<line x1="180px" y1="35px" x2="190px" y2="35px" style="stroke:rgb(0,0,0);stroke-width:1"/>
<line x1="190px" y1="35px" x2="190px" y2="45px" style="stroke:rgb(0,0,0);stroke-width:1"/>
<line x1="190px" y1="45px" x2="200px" y2="45px" style="stroke:rgb(0,0,0);stroke-width:1"/>
<line x1="200px" y1="45px" x2="200px" y2="35px" style="stroke:rgb(0,0,0);stroke-width:1"/>
<line x1="200px" y1="35px" x2="210px" y2="35px" style="stroke:rgb(0,0,0);stroke-width:1"/>
<line x1="210px" y1="35px" x2="210px" y2="45px" style="stroke:rgb(0,0,0);stroke-width:1"/>
<line x1="210px" y1="45px" x2="220px" y2="45px" style="stroke:rgb(0,0,0);stroke-width:1"/>
<line x1="255px" y1="65px" x2="265px" y2="65px" style="stroke:rgb(0,0,0);stroke-width:1"/>
<line x1="265px" y1="65px" x2="265px" y2="55px" style="stroke:rgb(0,0,0);stroke-width:1"/>
<line x1="265px" y1="55px" x2="275px" y2="55px" style="stroke:rgb(0,0,0);stroke-width:1"/>
<line x1="275px" y1="55px" x2="275px" y2="65px" style="stroke:rgb(0,0,0);stroke-width:1"/>
<line x1="275px" y1="65px" x2="285px" y2="65px" style="stroke:rgb(0,0,0);stroke-width:1"/>
<line x1="285px" y1="65px" x2="285px" y2="55px" style="stroke:rgb(0,0,0);stroke-width:1"/>
<line x1="285px" y1="55px" x2="295px" y2="55px" style="stroke:rgb(0,0,0);stroke-width:1"/>
<line x1="295px" y1="55px" x2="295px" y2="65px" style="stroke:rgb(0,0,0);stroke-width:1"/>
<line x1="400px" y1="0px" x2="390px" y2="0px" style="stroke:rgb(0,0,0);stroke-width:1"/>
<line x1="390px" y1="0px" x2="390px" y2="10px" style="stroke:rgb(0,0,0);stroke-width:1"/>
<line x1="390px" y1="10px" x2="400px" y2="10px" style="stroke:rgb(0,0,0);stroke-width:1"/>
<line x1="400px" y1="10px" x2="400px" y2="20px" style="stroke:rgb(0,0,0);stroke-width:1"/>
<line x1="400px" y1="20px" x2="390px" y2="20px" style="stroke:rgb(0,0,0);stroke-width:1"/>
<line x1="390px" y1="20px" x2="390px" y2="30px" style="stroke:rgb(0,0,0);stroke-width:1"/>
<line x1="390px" y1="30px" x2="400px" y2="30px" style="stroke:rgb(0,0,0);stroke-width:1"/>
<line x1="400px" y1="30px" x2="400px" y2="40px" style="stroke:rgb(0,0,0);stroke-width:1"/>
<line x1="350px" y1="120px" x2="350px" y2="110px" style="stroke:rgb(0,0,0);stroke-width:1"/>
<line x1="350px" y1="110px" x2="340px" y2="110px" style="stroke:rgb(0,0,0);stroke-width:1"/>
<line x1="340px" y1="110px" x2="340px" y2="120px" style="stroke:rgb(0,0,0);stroke-width:1"/>
<line x1="340px" y1="120px" x2="330px" y2="120px" style="stroke:rgb(0,0,0);stroke-width:1"/>
<line x1="330px" y1="120px" x2="330px" y2="110px" style="stroke:rgb(0,0,0);stroke-width:1"/>
<line x1="330px" y1="110px" x2="320px" y2="110px" style="stroke:rgb(0,0,0);stroke-width:1"/>
<line x1="320px" y1="110px" x2="320px" y2="120px" style="stroke:rgb(0,0,0);stroke-width:1"/>
<line x1="320px" y1="120px" x2="310px" y2="120px" style="stroke:rgb(0,0,0);stroke-width:1"/>
<line x1="330px" y1="195px" x2="340px" y2="195px" style="stroke:rgb(0,0,0);stroke-width:1"/>
<line x1="340px" y1="195px" x2="340px" y2="185px" style="stroke:rgb(0,0,0);stroke-width:1"/>
<line x1="340px" y1="185px" x2="350px" y2="185px" style="stroke:rgb(0,0,0);stroke-width:1"/>
<line x1="350px" y1="185px" x2="350px" y2="195px" style="stroke:rgb(0,0,0);stroke-width:1"/>
<line x1="350px" y1="195px" x2="360px" y2="195px" style="stroke:rgb(0,0,0);stroke-width:1"/>
<line x1="360px" y1="195px" x2="360px" y2="185px" style="stroke:rgb(0,0,0);stroke-width:1"/>
<line x1="360px" y1="185px" x2="370px" y2="185px" style="stroke:rgb(0,0,0);stroke-width:1"/>
<line x1="370px" y1="185px" x2="370px" y2="195px" style="stroke:rgb(0,0,0);stroke-width:1"/>
<line x1="310px" y1="270px" x2="320px" y2="270px" style="stroke:rgb(0,0,0);stroke-width:1"/>
<line x1="320px" y1="270px" x2="320px" y2="280px" style="stroke:rgb(0,0,0);stroke-width:1"/>
<line x1="320px" y1="280px" x2="330px" y2="280px" style="stroke:rgb(0,0,0);stroke-width:1"/>
<line x1="330px" y1="280px" x2="330px" y2="270px" style="stroke:rgb(0,0,0);stroke-width:1"/>
<line x1="330px" y1="270px" x2="340px" y2="270px" style="stroke:rgb(0,0,0);stroke-width:1"/>
<line x1="340px" y1="270px" x2="340px" y2="280px" style="stroke:rgb(0,0,0);stroke-width:1"/>
<line x1="340px" y1="280px" x2="350px" y2="280px" style="stroke:rgb(0,0,0);stroke-width:1"/>
<line x1="350px" y1="280px" x2="350px" y2="270px" style="stroke:rgb(0,0,0);stroke-width:1"/>
<line x1="400px" y1="360px" x2="390px" y2="360px" style="stroke:rgb(0,0,0);stroke-width:1"/>
<line x1="390px" y1="360px" x2="390px" y2="370px" style="stroke:rgb(0,0,0);stroke-width:1"/>
<line x1="390px" y1="370px" x2="400px" y2="370px" style="stroke:rgb(0,0,0);stroke-width:1"/>
<line x1="400px" y1="370px" x2="400px" y2="380px" style="stroke:rgb(0,0,0);stroke-width:1"/>
<line x1="400px" y1="380px" x2="390px" y2="380px" style="stroke:rgb(0,0,0);stroke-width:1"/>
<line x1="390px" y1="380px" x2="390px" y2="390px" style="stroke:rgb(0,0,0);stroke-width:1"/>
<line x1="390px" y1="390px" x2="400px" y2="390px" style="stroke:rgb(0,0,0);stroke-width:1"/>
<line x1="400px" y1="390px" x2="400px" y2="400px" style="stroke:rgb(0,0,0);stroke-width:1"/>
<line x1="295px" y1="325px" x2="295px" y2="335px" style="stroke:rgb(0,0,0);stroke-width:1"/>
<line x1="295px" y1="335px" x2="285px" y2="335px" style="stroke:rgb(0,0,0);stroke-width:1"/>
<line x1="285px" y1="335px" x2="285px" y2="325px" style="stroke:rgb(0,0,0);stroke-width:1"/>
<line x1="285px" y1="325px" x2="275px" y2="325px" style="stroke:rgb(0,0,0);stroke-width:1"/>
<line x1="275px" y1="325px" x2="275px" y2="335px" style="stroke:rgb(0,0,0);stroke-width:1"/>
<line x1="275px" y1="335px" x2="265px" y2="335px" style="stroke:rgb(0,0,0);stroke-width:1"/>
<line x1="265px" y1="335px" x2="265px" y2="325px" style="stroke:rgb(0,0,0);stroke-width:1"/>
<line x1="265px" y1="325px" x2="255px" y2="325px" style="stroke:rgb(0,0,0);stroke-width:1"/>
<line x1="220px" y1="345px" x2="210px" y2="345px" style="stroke:rgb(0,0,0);stroke-width:1"/>
<line x1="210px" y1="345px" x2="210px" y2="355px" style="stroke:rgb(0,0,0);stroke-width:1"/>
<line x1="210px" y1="355px" x2="200px" y2="355px" style="stroke:rgb(0,0,0);stroke-width:1"/>
<line x1="200px" y1="355px" x2="200px" y2="345px" style="stroke:rgb(0,0,0);stroke-width:1"/>
<line x1="200px" y1="345px" x2="190px" y2="345px" style="stroke:rgb(0,0,0);stroke-width:1"/>
<line x1="190px" y1="345px" x2="190px" y2="355px" style="stroke:rgb(0,0,0);stroke-width:1"/>
<line x1="190px" y1="355px" x2="180px" y2="355px" style="stroke:rgb(0,0,0);stroke-width:1"/>
<line x1="180px" y1="355px" x2="180px" y2="345px" style="stroke:rgb(0,0,0);stroke-width:1"/>
<line x1="145px" y1="325px" x2="135px" y2="325px" style="stroke:rgb(0,0,0);stroke-width:1"/>
<line x1="135px" y1="325px" x2="135px" y2="335px" style="stroke:rgb(0,0,0);stroke-width:1"/>
<line x1="135px" y1="335px" x2="125px" y2="335px" style="stroke:rgb(0,0,0);stroke-width:1"/>
<line x1="125px" y1="335px" x2="125px" y2="325px" style="stroke:rgb(0,0,0);stroke-width:1"/>
<line x1="125px" y1="325px" x2="115px" y2="325px" style="stroke:rgb(0,0,0);stroke-width:1"/>
<line x1="115px" y1="325px" x2="115px" y2="335px" style="stroke:rgb(0,0,0);stroke-width:1"/>
<line x1="115px" y1="335px" x2="105px" y2="335px" style="stroke:rgb(0,0,0);stroke-width:1"/>
<line x1="105px" y1="335px" x2="105px" y2="325px" style="stroke:rgb(0,0,0);stroke-width:1"/>
<line x1="0px" y1="400px" x2="0px" y2="390px" style="stroke:rgb(0,0,0);stroke-width:1"/>
<line x1="0px" y1="390px" x2="10px" y2="390px" style="stroke:rgb(0,0,0);stroke-width:1"/>
<line x1="10px" y1="390px" x2="10px" y2="380px" style="stroke:rgb(0,0,0);stroke-width:1"/>
<line x1="10px" y1="380px" x2="0px" y2="380px" style="stroke:rgb(0,0,0);stroke-width:1"/>
<line x1="0px" y1="380px" x2="0px" y2="370px" style="stroke:rgb(0,0,0);stroke-width:1"/>
<line x1="0px" y1="370px" x2="10px" y2="370px" style="stroke:rgb(0,0,0);stroke-width:1"/>
<line x1="10px" y1="370px" x2="10px" y2="360px" style="stroke:rgb(0,0,0);stroke-width:1"/>
<line x1="10px" y1="360px" x2="0px" y2="360px" style="stroke:rgb(0,0,0);stroke-width:1"/>
<line x1="50px" y1="270px" x2="50px" y2="280px" style="stroke:rgb(0,0,0);stroke-width:1"/>
<line x1="50px" y1="280px" x2="60px" y2="280px" style="stroke:rgb(0,0,0);stroke-width:1"/>
<line x1="60px" y1="280px" x2="60px" y2="270px" style="stroke:rgb(0,0,0);stroke-width:1"/>
<line x1="60px" y1="270px" x2="70px" y2="270px" style="stroke:rgb(0,0,0);stroke-width:1"/>
<line x1="70px" y1="270px" x2="70px" y2="280px" style="stroke:rgb(0,0,0);stroke-width:1"/>
<line x1="70px" y1="280px" x2="80px" y2="280px" style="stroke:rgb(0,0,0);stroke-width:1"/>
<line x1="80px" y1="280px" x2="80px" y2="270px" style="stroke:rgb(0,0,0);stroke-width:1"/>
<line x1="80px" y1="270px" x2="90px" y2="270px" style="stroke:rgb(0,0,0);stroke-width:1"/>
<line x1="30px" y1="195px" x2="30px" y2="185px" style="stroke:rgb(0,0,0);stroke-width:1"/>
<line x1="30px" y1="185px" x2="40px" y2="185px" style="stroke:rgb(0,0,0);stroke-width:1"/>
<line x1="40px" y1="185px" x2="40px" y2="195px" style="stroke:rgb(0,0,0);stroke-width:1"/>
<line x1="40px" y1="195px" x2="50px" y2="195px" style="stroke:rgb(0,0,0);stroke-width:1"/>
<line x1="50px" y1="195px" x2="50px" y2="185px" style="stroke:rgb(0,0,0);stroke-width:1"/>
<line x1="50px" y1="185px" x2="60px" y2="185px" style="stroke:rgb(0,0,0);stroke-width:1"/>
<line x1="60px" y1="185px" x2="60px" y2="195px" style="stroke:rgb(0,0,0);stroke-width:1"/>
<line x1="60px" y1="195px" x2="70px" y2="195px" style="stroke:rgb(0,0,0);stroke-width:1"/>
<line x1="50px" y1="120px" x2="50px" y2="110px" style="stroke:rgb(0,0,0);stroke-width:1"/>
<line x1="50px" y1="110px" x2="60px" y2="110px" style="stroke:rgb(0,0,0);stroke-width:1"/>
<line x1="60px" y1="110px" x2="60px" y2="120px" style="stroke:rgb(0,0,0);stroke-width:1"/>
<line x1="60px" y1="120px" x2="70px" y2="120px" style="stroke:rgb(0,0,0);stroke-width:1"/>
<line x1="70px" y1="120px" x2="70px" y2="110px" style="stroke:rgb(0,0,0);stroke-width:1"/>
<line x1="70px" y1="110px" x2="80px" y2="110px" style="stroke:rgb(0,0,0);stroke-width:1"/>
<line x1="80px" y1="110px" x2="80px" y2="120px" style="stroke:rgb(0,0,0);stroke-width:1"/>
<line x1="80px" y1="120px" x2="90px" y2="120px" style="stroke:rgb(0,0,0);stroke-width:1"/>
<line x1="120px" y1="160px" x2="120px" y2="120px" style="stroke:rgb(0,0,0);stroke-width:1"/>
<line x1="120px" y1="120px" x2="160px" y2="120px" style="stroke:rgb(0,0,0);stroke-width:1"/>
<line x1="160px" y1="120px" x2="160px" y2="160px" style="stroke:rgb(0,0,0);stroke-width:1"/>
<line x1="160px" y1="160px" x2="200px" y2="160px" style="stroke:rgb(0,0,0);stroke-width:1"/>
<line x1="200px" y1="160px" x2="200px" y2="120px" style="stroke:rgb(0,0,0);stroke-width:1"/>
<line x1="200px" y1="120px" x2="240px" y2="120px" style="stroke:rgb(0,0,0);stroke-width:1"/>
<line x1="240px" y1="120px" x2="240px" y2="160px" style="stroke:rgb(0,0,0);stroke-width:1"/>
<line x1="240px" y1="160px" x2="280px" y2="160px" style="stroke:rgb(0,0,0);stroke-width:1"/>
<line x1="260px" y1="200px" x2="230px" y2="200px" style="stroke:rgb(0,0,0);stroke-width:1"/>
<line x1="230px" y1="200px" x2="230px" y2="170px" style="stroke:rgb(0,0,0);stroke-width:1"/>
<line x1="230px" y1="170px" x2="200px" y2="170px" style="stroke:rgb(0,0,0);stroke-width:1"/>
<line x1="200px" y1="170px" x2="200px" y2="200px" style="stroke:rgb(0,0,0);stroke-width:1"/>
<line x1="200px" y1="200px" x2="170px" y2="200px" style="stroke:rgb(0,0,0);stroke-width:1"/>
<line x1="170px" y1="200px" x2="170px" y2="170px" style="stroke:rgb(0,0,0);stroke-width:1"/>
<line x1="170px" y1="170px" x2="140px" y2="170px" style="stroke:rgb(0,0,0);stroke-width:1"/>
<line x1="140px" y1="170px" x2="140px" y2="200px" style="stroke:rgb(0,0,0);stroke-width:1"/>
<line x1="160px" y1="240px" x2="160px" y2="220px" style="stroke:rgb(0,0,0);stroke-width:1"/>
<line x1="160px" y1="220px" x2="180px" y2="220px" style="stroke:rgb(0,0,0);stroke-width:1"/>
<line x1="180px" y1="220px" x2="180px" y2="240px" style="stroke:rgb(0,0,0);stroke-width:1"/>
<line x1="180px" y1="240px" x2="200px" y2="240px" style="stroke:rgb(0,0,0);stroke-width:1"/>
<line x1="200px" y1="240px" x2="200px" y2="220px" style="stroke:rgb(0,0,0);stroke-width:1"/>
<line x1="200px" y1="220px" x2="220px" y2="220px" style="stroke:rgb(0,0,0);stroke-width:1"/>
<line x1="220px" y1="220px" x2="220px" y2="240px" style="stroke:rgb(0,0,0);stroke-width:1"/>
<line x1="220px" y1="240px" x2="240px" y2="240px" style="stroke:rgb(0,0,0);stroke-width:1"/>
<line x1="220px" y1="260px" x2="210px" y2="260px" style="stroke:rgb(0,0,0);stroke-width:1"/>
<line x1="210px" y1="260px" x2="210px" y2="250px" style="stroke:rgb(0,0,0);stroke-width:1"/>
<line x1="210px" y1="250px" x2="200px" y2="250px" style="stroke:rgb(0,0,0);stroke-width:1"/>
<line x1="200px" y1="250px" x2="200px" y2="260px" style="stroke:rgb(0,0,0);stroke-width:1"/>
<line x1="200px" y1="260px" x2="190px" y2="260px" style="stroke:rgb(0,0,0);stroke-width:1"/>
<line x1="190px" y1="260px" x2="190px" y2="250px" style="stroke:rgb(0,0,0);stroke-width:1"/>
<line x1="190px" y1="250px" x2="180px" y2="250px" style="stroke:rgb(0,0,0);stroke-width:1"/>
<line x1="180px" y1="250px" x2="180px" y2="260px" style="stroke:rgb(0,0,0);stroke-width:1"/>
<line x1="190px" y1="280px" x2="190px" y2="275px" style="stroke:rgb(0,0,0);stroke-width:1"/>
<line x1="190px" y1="275px" x2="195px" y2="275px" style="stroke:rgb(0,0,0);stroke-width:1"/>
<line x1="195px" y1="275px" x2="195px" y2="280px" style="stroke:rgb(0,0,0);stroke-width:1"/>
<line x1="195px" y1="280px" x2="200px" y2="280px" style="stroke:rgb(0,0,0);stroke-width:1"/>
<line x1="200px" y1="280px" x2="200px" y2="275px" style="stroke:rgb(0,0,0);stroke-width:1"/>
<line x1="200px" y1="275px" x2="205px" y2="275px" style="stroke:rgb(0,0,0);stroke-width:1"/>
<line x1="205px" y1="275px" x2="205px" y2="280px" style="stroke:rgb(0,0,0);stroke-width:1"/>
<line x1="205px" y1="280px" x2="210px" y2="280px" style="stroke:rgb(0,0,0);stroke-width:1"/>
</svg>
